Title                            : Red
Year                             : 2010
Genre                            : Action | Comedy | Crime
iMDB URL                         : http://www.imdb.com/title/tt1245526/

Complete name                    : Red.2010.BRRIP.720P.H264-ZEKTORM.mp4
Format                           : MPEG-4
Format profile                   : Base Media
Codec ID                         : isom
File size                        : 2.34 GiB
Duration                         : 1h 51mn
Overall bit rate                 : 3017 Kbps
Subtitles                        : English (Format: srt)

Video
ID                               : 1
Format                           : AVC
Format/Info                      : Advanced Video Codec
Format profile                   : High@L4.0
Format settings, CABAC           : Yes
Format settings, ReFrames        : 5 frames
Codec ID                         : avc1
Codec ID/Info                    : Advanced Video Coding
Duration                         : 1h 51mn
Bit rate mode                    : Variable
Bit rate                         : 2791 Kbps
Width                            : 1280 pixels
Height                           : 528 pixels
Display aspect ratio             : 2.424
Frame rate mode                  : Constant
Frame rate                       : 23.976 fps
Resolution                       : 24 bits
Colorimetry                      : 4:2:0
Scan type                        : Progressive
Bits/(Pixel*Frame)               : 0.172
Stream size                      : 2.17 GiB (92%)
Title                            : Video
Writing library                  : x264

Audio
ID                               : 2
Format                           : AAC
Format/Info                      : Advanced Audio Codec
Format version                   : Version 4
Format profile                   : LC
Format settings, SBR             : Yes
Format settings, PS              : No
Codec ID                         : 40
Duration                         : 1h 51mn
Bit rate mode                    : Variable
Bit rate                         : 225 Kbps
Maximum bit rate                 : 289 Kbps
Channel(s)                       : 6 channels
Channel positions                : Front: L C R, Rear: L R, LFE
Sampling rate                    : 48.0 KHz
Resolution                       : 16 bits
Stream size                      : 179 MiB (7%)
Language                         : English


Screenshots:
 
http://img687.imageshack.us/img687/7734/snapr1.png
 
http://img683.imageshack.us/img683/4151/snapr2.png
 
http://img684.imageshack.us/img684/3736/snapr3.png
 
http://img195.imageshack.us/img195/4176/snapr4.png
